<?xml version="1.0" encoding="UTF-8" standalone="no"?>
<!DOCTYPE svg PUBLIC "-//W3C//DTD SVG 1.1//EN"
 "http://www.w3.org/Graphics/SVG/1.1/DTD/svg11.dtd">
<!-- Generated by graphviz version 14.1.4 (20260321.0153)
 -->
<!-- Title: G Pages: 1 -->
<svg width="152pt" height="410pt"
 viewBox="0.00 0.00 152.00 410.00" xmlns="http://www.w3.org/2000/svg" xmlns:xlink="http://www.w3.org/1999/xlink">
<g id="graph0" class="graph" transform="scale(1 1) rotate(0) translate(4 406)">
<title>G</title><style>.edge>path:hover{stroke-width:8}</style>
<polygon fill="white" stroke="none" points="-4,4 -4,-406 147.87,-406 147.87,4 -4,4"/>
<!-- agent_s_py -->
<g id="node1" class="node">
<title>agent_s_py</title><style>.edge>path:hover{stroke-width:8}</style>
<ellipse fill="#6b8b4b" stroke="black" cx="106" cy="-18" rx="37.87" ry="18"/>
<text xml:space="preserve" text-anchor="middle" x="106" y="-14.12" font-family="Helvetica,sans-Serif" font-size="10.00" fill="#ffffff">agent_s.py</text>
</g>
<!-- gui_agents -->
<g id="node2" class="node">
<title>gui_agents</title><style>.edge>path:hover{stroke-width:8}</style>
<polygon fill="#10f9f9" stroke="black" points="137.62,-219 134.62,-223 113.62,-223 110.62,-219 74.38,-219 74.38,-183 137.62,-183 137.62,-219"/>
<text xml:space="preserve" text-anchor="middle" x="106" y="-197.12" font-family="Helvetica,sans-Serif" font-size="10.00" fill="#000000">gui_agents</text>
</g>
<!-- gui_agents&#45;&gt;agent_s_py -->
<g id="edge1" class="edge">
<title>gui_agents&#45;&gt;agent_s_py</title><style>.edge>path:hover{stroke-width:8}</style>
<path fill="none" stroke="black" d="M106,-182.64C106,-151.43 106,-85.53 106,-47.57"/>
<polygon fill="#10f9f9" stroke="black" points="109.5,-47.82 106,-37.82 102.5,-47.82 109.5,-47.82"/>
</g>
<!-- PIL -->
<g id="node3" class="node">
<title>PIL</title><style>.edge>path:hover{stroke-width:8}</style>
<polygon fill="#d92626" stroke="black" points="54,-402 51,-406 30,-406 27,-402 0,-402 0,-366 54,-366 54,-402"/>
<text xml:space="preserve" text-anchor="middle" x="27" y="-380.12" font-family="Helvetica,sans-Serif" font-size="10.00" fill="#ffffff">PIL</text>
</g>
<!-- PIL&#45;&gt;gui_agents -->
<g id="edge2" class="edge">
<title>PIL&#45;&gt;gui_agents</title><style>.edge>path:hover{stroke-width:8}</style>
<path fill="none" stroke="black" d="M54.45,-369.33C75.71,-357.95 102.18,-341.78 106,-330"/>
<path fill="none" stroke="black" d="M106,-329C116.56,-296.44 114.31,-256.68 110.91,-230.41"/>
<polygon fill="#d92626" stroke="black" points="114.42,-230.26 109.52,-220.87 107.5,-231.26 114.42,-230.26"/>
</g>
<!-- pytesseract -->
<g id="node4" class="node">
<title>pytesseract</title><style>.edge>path:hover{stroke-width:8}</style>
<polygon fill="#8553b6" stroke="black" points="139.5,-402 136.5,-406 115.5,-406 112.5,-402 72.5,-402 72.5,-366 139.5,-366 139.5,-402"/>
<text xml:space="preserve" text-anchor="middle" x="106" y="-380.12" font-family="Helvetica,sans-Serif" font-size="10.00" fill="#ffffff">pytesseract</text>
</g>
<!-- pytesseract&#45;&gt;gui_agents -->
<g id="edge3" class="edge">
<title>pytesseract&#45;&gt;gui_agents</title><style>.edge>path:hover{stroke-width:8}</style>
<path fill="none" stroke="black" d="M103.36,-365.87C102.37,-355.28 102.25,-341.55 106,-330"/>
</g>
</g>
</svg>
