<?xml version="1.0" encoding="UTF-8" standalone="no"?>
<!DOCTYPE svg PUBLIC "-//W3C//DTD SVG 1.1//EN"
 "http://www.w3.org/Graphics/SVG/1.1/DTD/svg11.dtd">
<!-- Generated by graphviz version 14.1.4 (20260321.0153)
 -->
<!-- Title: packages Pages: 1 -->
<svg width="1328pt" height="476pt"
 viewBox="0.00 0.00 1328.00 476.00" xmlns="http://www.w3.org/2000/svg" xmlns:xlink="http://www.w3.org/1999/xlink">
<g id="graph0" class="graph" transform="scale(1 1) rotate(0) translate(4 472)">
<title>packages</title>
<polygon fill="white" stroke="none" points="-4,4 -4,-472 1323.89,-472 1323.89,4 -4,4"/>
<!-- gui_agents.s3 -->
<g id="node1" class="node">
<title>gui_agents.s3</title>
<polygon fill="none" stroke="black" points="454.39,-36 364.14,-36 364.14,0 454.39,0 454.39,-36"/>
<text xml:space="preserve" text-anchor="start" x="372.14" y="-13.5" font-family="Times,serif" font-size="14.00">gui_agents.s3</text>
</g>
<!-- gui_agents.s3.agents -->
<g id="node2" class="node">
<title>gui_agents.s3.agents</title>
<polygon fill="none" stroke="black" points="600.51,-36 472.01,-36 472.01,0 600.51,0 600.51,-36"/>
<text xml:space="preserve" text-anchor="start" x="480.01" y="-13.5" font-family="Times,serif" font-size="14.00">gui_agents.s3.agents</text>
</g>
<!-- gui_agents.s3.agents.agent_s -->
<g id="node3" class="node">
<title>gui_agents.s3.agents.agent_s</title>
<polygon fill="none" stroke="black" points="657.01,-108 483.51,-108 483.51,-72 657.01,-72 657.01,-108"/>
<text xml:space="preserve" text-anchor="start" x="491.51" y="-85.5" font-family="Times,serif" font-size="14.00">gui_agents.s3.agents.agent_s</text>
</g>
<!-- gui_agents.s3.agents.grounding -->
<g id="node5" class="node">
<title>gui_agents.s3.agents.grounding</title>
<polygon fill="none" stroke="black" points="779.14,-252 591.39,-252 591.39,-216 779.14,-216 779.14,-252"/>
<text xml:space="preserve" text-anchor="start" x="599.39" y="-229.5" font-family="Times,serif" font-size="14.00">gui_agents.s3.agents.grounding</text>
</g>
<!-- gui_agents.s3.agents.agent_s&#45;&gt;gui_agents.s3.agents.grounding -->
<g id="edge1" class="edge">
<title>gui_agents.s3.agents.agent_s&#45;&gt;gui_agents.s3.agents.grounding</title>
<path fill="none" stroke="black" d="M584.36,-108.41C604.39,-133.14 641.2,-178.59 664.39,-207.23"/>
<polygon fill="black" stroke="black" points="670.64,-214.94 660.85,-210 668.26,-212 664.34,-207.17 664.34,-207.17 664.34,-207.17 668.26,-212 667.84,-204.34 670.64,-214.94"/>
</g>
<!-- gui_agents.s3.agents.worker -->
<g id="node6" class="node">
<title>gui_agents.s3.agents.worker</title>
<polygon fill="none" stroke="black" points="391.51,-180 221.01,-180 221.01,-144 391.51,-144 391.51,-180"/>
<text xml:space="preserve" text-anchor="start" x="229.01" y="-157.5" font-family="Times,serif" font-size="14.00">gui_agents.s3.agents.worker</text>
</g>
<!-- gui_agents.s3.agents.agent_s&#45;&gt;gui_agents.s3.agents.worker -->
<g id="edge2" class="edge">
<title>gui_agents.s3.agents.agent_s&#45;&gt;gui_agents.s3.agents.worker</title>
<path fill="none" stroke="black" d="M504.32,-108.48C467.33,-118.29 421.01,-130.57 382.47,-140.79"/>
<polygon fill="black" stroke="black" points="372.99,-143.31 381.51,-136.39 376.65,-142.34 382.66,-140.74 382.66,-140.74 382.66,-140.74 376.65,-142.34 383.81,-145.09 372.99,-143.31"/>
</g>
<!-- gui_agents.s3.agents.code_agent -->
<g id="node4" class="node">
<title>gui_agents.s3.agents.code_agent</title>
<polygon fill="none" stroke="black" points="784.14,-324 590.39,-324 590.39,-288 784.14,-288 784.14,-324"/>
<text xml:space="preserve" text-anchor="start" x="598.39" y="-301.5" font-family="Times,serif" font-size="14.00">gui_agents.s3.agents.code_agent</text>
</g>
<!-- gui_agents.s3.core.mllm -->
<g id="node13" class="node">
<title>gui_agents.s3.core.mllm</title>
<polygon fill="none" stroke="black" points="887.76,-396 736.76,-396 736.76,-360 887.76,-360 887.76,-396"/>
<text xml:space="preserve" text-anchor="start" x="744.76" y="-373.5" font-family="Times,serif" font-size="14.00">gui_agents.s3.core.mllm</text>
</g>
<!-- gui_agents.s3.agents.code_agent&#45;&gt;gui_agents.s3.core.mllm -->
<g id="edge3" class="edge">
<title>gui_agents.s3.agents.code_agent&#45;&gt;gui_agents.s3.core.mllm</title>
<path fill="none" stroke="black" d="M718.48,-324.48C734.71,-333.57 754.73,-344.78 772.1,-354.51"/>
<polygon fill="black" stroke="black" points="780.38,-359.14 769.45,-358.18 777.08,-357.3 771.65,-354.26 771.65,-354.26 771.65,-354.26 777.08,-357.3 773.85,-350.33 780.38,-359.14"/>
</g>
<!-- gui_agents.s3.memory.procedural_memory -->
<g id="node16" class="node">
<title>gui_agents.s3.memory.procedural_memory</title>
<polygon fill="none" stroke="black" points="618.51,-468 364.01,-468 364.01,-432 618.51,-432 618.51,-468"/>
<text xml:space="preserve" text-anchor="start" x="372.01" y="-445.5" font-family="Times,serif" font-size="14.00">gui_agents.s3.memory.procedural_memory</text>
</g>
<!-- gui_agents.s3.agents.code_agent&#45;&gt;gui_agents.s3.memory.procedural_memory -->
<g id="edge4" class="edge">
<title>gui_agents.s3.agents.code_agent&#45;&gt;gui_agents.s3.memory.procedural_memory</title>
<path fill="none" stroke="black" d="M666.96,-324.48C645.13,-343 609.11,-372.72 576.26,-396 561.6,-406.4 544.92,-417.04 530.24,-426.03"/>
<polygon fill="black" stroke="black" points="521.97,-431.05 528.18,-422.02 525.2,-429.09 530.52,-425.86 530.52,-425.86 530.52,-425.86 525.2,-429.09 532.85,-429.71 521.97,-431.05"/>
</g>
<!-- gui_agents.s3.utils.common_utils -->
<g id="node18" class="node">
<title>gui_agents.s3.utils.common_utils</title>
<polygon fill="none" stroke="black" points="376.14,-396 176.39,-396 176.39,-360 376.14,-360 376.14,-396"/>
<text xml:space="preserve" text-anchor="start" x="184.39" y="-373.5" font-family="Times,serif" font-size="14.00">gui_agents.s3.utils.common_utils</text>
</g>
<!-- gui_agents.s3.agents.code_agent&#45;&gt;gui_agents.s3.utils.common_utils -->
<g id="edge5" class="edge">
<title>gui_agents.s3.agents.code_agent&#45;&gt;gui_agents.s3.utils.common_utils</title>
<path fill="none" stroke="black" d="M590.12,-323.54C529.2,-333.92 450.49,-347.33 387.14,-358.12"/>
<polygon fill="black" stroke="black" points="377.5,-359.76 386.6,-353.64 381.23,-359.12 387.36,-358.08 387.36,-358.08 387.36,-358.08 381.23,-359.12 388.12,-362.51 377.5,-359.76"/>
</g>
<!-- gui_agents.s3.agents.grounding&#45;&gt;gui_agents.s3.agents.code_agent -->
<g id="edge6" class="edge">
<title>gui_agents.s3.agents.grounding&#45;&gt;gui_agents.s3.agents.code_agent</title>
<path fill="none" stroke="black" d="M685.76,-252.3C685.97,-259.68 686.22,-268.48 686.45,-276.75"/>
<polygon fill="black" stroke="black" points="686.74,-286.68 681.95,-276.81 686.63,-282.9 686.45,-276.68 686.45,-276.68 686.45,-276.68 686.63,-282.9 690.95,-276.55 686.74,-286.68"/>
</g>
<!-- gui_agents.s3.agents.grounding&#45;&gt;gui_agents.s3.core.mllm -->
<g id="edge7" class="edge">
<title>gui_agents.s3.agents.grounding&#45;&gt;gui_agents.s3.core.mllm</title>
<path fill="none" stroke="black" d="M779.18,-252.17C816.5,-261.07 853.21,-273.2 864.26,-288 879.53,-308.45 861.65,-333.74 842.81,-352.13"/>
<polygon fill="black" stroke="black" points="835.67,-358.72 839.96,-348.63 838.45,-356.16 843.01,-351.94 843.01,-351.94 843.01,-351.94 838.45,-356.16 846.07,-355.24 835.67,-358.72"/>
</g>
<!-- gui_agents.s3.agents.grounding&#45;&gt;gui_agents.s3.memory.procedural_memory -->
<g id="edge8" class="edge">
<title>gui_agents.s3.agents.grounding&#45;&gt;gui_agents.s3.memory.procedural_memory</title>
<path fill="none" stroke="black" d="M779.42,-240.02C815.79,-246.68 854.9,-260.41 881.26,-288 914.79,-323.08 929.28,-359.54 897.26,-396 879.49,-416.24 740.43,-431.09 629.94,-439.84"/>
<polygon fill="black" stroke="black" points="620.21,-440.6 629.83,-435.34 623.98,-440.31 630.18,-439.82 630.18,-439.82 630.18,-439.82 623.98,-440.31 630.53,-444.31 620.21,-440.6"/>
</g>
<!-- gui_agents.s3.agents.grounding&#45;&gt;gui_agents.s3.utils.common_utils -->
<g id="edge9" class="edge">
<title>gui_agents.s3.agents.grounding&#45;&gt;gui_agents.s3.utils.common_utils</title>
<path fill="none" stroke="black" d="M591.08,-250.27C587.09,-250.86 583.14,-251.44 579.26,-252 516.29,-261.04 342.1,-244.95 295.26,-288 278.81,-303.12 274.74,-328.7 274.39,-348.57"/>
<polygon fill="black" stroke="black" points="274.54,-358.55 269.89,-348.62 274.48,-354.77 274.39,-348.55 274.39,-348.55 274.39,-348.55 274.48,-354.77 278.89,-348.48 274.54,-358.55"/>
</g>
<!-- gui_agents.s3.agents.worker&#45;&gt;gui_agents.s3.agents.grounding -->
<g id="edge10" class="edge">
<title>gui_agents.s3.agents.worker&#45;&gt;gui_agents.s3.agents.grounding</title>
<path fill="none" stroke="black" d="M391.79,-178.8C447.59,-189.1 520.81,-202.63 580.16,-213.59"/>
<polygon fill="black" stroke="black" points="589.87,-215.38 579.22,-217.99 586.15,-214.7 580.04,-213.57 580.04,-213.57 580.04,-213.57 586.15,-214.7 580.86,-209.14 589.87,-215.38"/>
</g>
<!-- gui_agents.s3.core.module -->
<g id="node14" class="node">
<title>gui_agents.s3.core.module</title>
<polygon fill="none" stroke="black" points="570.39,-252 408.14,-252 408.14,-216 570.39,-216 570.39,-252"/>
<text xml:space="preserve" text-anchor="start" x="416.14" y="-229.5" font-family="Times,serif" font-size="14.00">gui_agents.s3.core.module</text>
</g>
<!-- gui_agents.s3.agents.worker&#45;&gt;gui_agents.s3.core.module -->
<g id="edge11" class="edge">
<title>gui_agents.s3.agents.worker&#45;&gt;gui_agents.s3.core.module</title>
<path fill="none" stroke="black" d="M351.97,-180.48C376.74,-189.96 407.53,-201.74 433.68,-211.74"/>
<polygon fill="black" stroke="black" points="442.68,-215.18 431.74,-215.81 439.15,-213.83 433.34,-211.61 433.34,-211.61 433.34,-211.61 439.15,-213.83 434.95,-207.41 442.68,-215.18"/>
</g>
<!-- gui_agents.s3.agents.worker&#45;&gt;gui_agents.s3.memory.procedural_memory -->
<g id="edge12" class="edge">
<title>gui_agents.s3.agents.worker&#45;&gt;gui_agents.s3.memory.procedural_memory</title>
<path fill="none" stroke="black" d="M220.8,-172.1C155.79,-180.53 73.08,-194.96 46.26,-216 6.67,-247.07 -14.81,-281.58 12.26,-324 48.99,-381.55 224.6,-415.81 352.58,-433.53"/>
<polygon fill="black" stroke="black" points="362.44,-434.87 351.92,-437.98 358.69,-434.36 352.53,-433.52 352.53,-433.52 352.53,-433.52 358.69,-434.36 353.14,-429.06 362.44,-434.87"/>
</g>
<!-- gui_agents.s3.agents.worker&#45;&gt;gui_agents.s3.utils.common_utils -->
<g id="edge13" class="edge">
<title>gui_agents.s3.agents.worker&#45;&gt;gui_agents.s3.utils.common_utils</title>
<path fill="none" stroke="black" d="M220.54,-172.82C151.82,-185.95 60.88,-216.6 23.26,-288 -9.24,-349.7 82.89,-369.67 164.94,-375.62"/>
<polygon fill="black" stroke="black" points="174.7,-376.26 164.43,-380.09 170.93,-376.01 164.73,-375.6 164.73,-375.6 164.73,-375.6 170.93,-376.01 165.02,-371.11 174.7,-376.26"/>
</g>
<!-- gui_agents.s3.utils.formatters -->
<g id="node19" class="node">
<title>gui_agents.s3.utils.formatters</title>
<polygon fill="none" stroke="black" points="209.89,-324 32.64,-324 32.64,-288 209.89,-288 209.89,-324"/>
<text xml:space="preserve" text-anchor="start" x="40.64" y="-301.5" font-family="Times,serif" font-size="14.00">gui_agents.s3.utils.formatters</text>
</g>
<!-- gui_agents.s3.agents.worker&#45;&gt;gui_agents.s3.utils.formatters -->
<g id="edge14" class="edge">
<title>gui_agents.s3.agents.worker&#45;&gt;gui_agents.s3.utils.formatters</title>
<path fill="none" stroke="black" d="M220.59,-178.13C196.32,-185.99 171.56,-197.92 153.26,-216 136.94,-232.13 128.9,-257.18 124.97,-276.6"/>
<polygon fill="black" stroke="black" points="123.26,-286.35 120.55,-275.73 123.91,-282.63 124.98,-276.5 124.98,-276.5 124.98,-276.5 123.91,-282.63 129.42,-277.28 123.26,-286.35"/>
</g>
<!-- gui_agents.s3.bbon -->
<g id="node7" class="node">
<title>gui_agents.s3.bbon</title>
<polygon fill="none" stroke="black" points="890.76,-36 769.76,-36 769.76,0 890.76,0 890.76,-36"/>
<text xml:space="preserve" text-anchor="start" x="777.76" y="-13.5" font-family="Times,serif" font-size="14.00">gui_agents.s3.bbon</text>
</g>
<!-- gui_agents.s3.bbon.behavior_narrator -->
<g id="node8" class="node">
<title>gui_agents.s3.bbon.behavior_narrator</title>
<polygon fill="none" stroke="black" points="384.01,-252 162.51,-252 162.51,-216 384.01,-216 384.01,-252"/>
<text xml:space="preserve" text-anchor="start" x="170.51" y="-229.5" font-family="Times,serif" font-size="14.00">gui_agents.s3.bbon.behavior_narrator</text>
</g>
<!-- gui_agents.s3.bbon.behavior_narrator&#45;&gt;gui_agents.s3.core.mllm -->
<g id="edge15" class="edge">
<title>gui_agents.s3.bbon.behavior_narrator&#45;&gt;gui_agents.s3.core.mllm</title>
<path fill="none" stroke="black" d="M384.2,-250.24C389.29,-250.85 394.33,-251.44 399.26,-252 442.94,-256.94 760.38,-258.82 793.26,-288 810.06,-302.9 814.06,-328.69 814.3,-348.68"/>
<polygon fill="black" stroke="black" points="814.1,-358.43 809.8,-348.34 814.17,-354.65 814.3,-348.44 814.3,-348.44 814.3,-348.44 814.17,-354.65 818.8,-348.53 814.1,-358.43"/>
</g>
<!-- gui_agents.s3.bbon.behavior_narrator&#45;&gt;gui_agents.s3.memory.procedural_memory -->
<g id="edge16" class="edge">
<title>gui_agents.s3.bbon.behavior_narrator&#45;&gt;gui_agents.s3.memory.procedural_memory</title>
<path fill="none" stroke="black" d="M384.29,-250.06C454.02,-260.66 532.71,-275.18 543.26,-288 575.98,-327.77 539.49,-388.58 513.24,-422.96"/>
<polygon fill="black" stroke="black" points="507.26,-430.55 509.92,-419.91 509.6,-427.58 513.45,-422.7 513.45,-422.7 513.45,-422.7 509.6,-427.58 516.99,-425.48 507.26,-430.55"/>
</g>
<!-- gui_agents.s3.bbon.behavior_narrator&#45;&gt;gui_agents.s3.utils.common_utils -->
<g id="edge17" class="edge">
<title>gui_agents.s3.bbon.behavior_narrator&#45;&gt;gui_agents.s3.utils.common_utils</title>
<path fill="none" stroke="black" d="M268.8,-252.05C266.33,-262.37 263.51,-275.85 262.26,-288 260.63,-303.92 260.2,-308.13 262.26,-324 263.33,-332.21 265.29,-340.96 267.41,-348.94"/>
<polygon fill="black" stroke="black" points="270.1,-358.39 263.03,-350.01 269.07,-354.75 267.36,-348.77 267.36,-348.77 267.36,-348.77 269.07,-354.75 271.69,-347.54 270.1,-358.39"/>
</g>
<!-- gui_agents.s3.bbon.behavior_narrator&#45;&gt;gui_agents.s3.utils.formatters -->
<g id="edge18" class="edge">
<title>gui_agents.s3.bbon.behavior_narrator&#45;&gt;gui_agents.s3.utils.formatters</title>
<path fill="none" stroke="black" d="M235.3,-252.48C215.27,-261.71 190.5,-273.11 169.17,-282.94"/>
<polygon fill="black" stroke="black" points="160.11,-287.11 167.31,-278.84 163.55,-285.53 169.19,-282.93 169.19,-282.93 169.19,-282.93 163.55,-285.53 171.08,-287.01 160.11,-287.11"/>
</g>
<!-- gui_agents.s3.bbon.comparative_judge -->
<g id="node9" class="node">
<title>gui_agents.s3.bbon.comparative_judge</title>
<polygon fill="none" stroke="black" points="533.76,-324 304.76,-324 304.76,-288 533.76,-288 533.76,-324"/>
<text xml:space="preserve" text-anchor="start" x="312.76" y="-301.5" font-family="Times,serif" font-size="14.00">gui_agents.s3.bbon.comparative_judge</text>
</g>
<!-- gui_agents.s3.bbon.comparative_judge&#45;&gt;gui_agents.s3.core.mllm -->
<g id="edge19" class="edge">
<title>gui_agents.s3.bbon.comparative_judge&#45;&gt;gui_agents.s3.core.mllm</title>
<path fill="none" stroke="black" d="M517.42,-324.48C581.33,-335.87 663.95,-350.58 725.46,-361.54"/>
<polygon fill="black" stroke="black" points="735.1,-363.26 724.47,-365.93 731.38,-362.59 725.26,-361.5 725.26,-361.5 725.26,-361.5 731.38,-362.59 726.05,-357.07 735.1,-363.26"/>
</g>
<!-- gui_agents.s3.bbon.comparative_judge&#45;&gt;gui_agents.s3.memory.procedural_memory -->
<g id="edge20" class="edge">
<title>gui_agents.s3.bbon.comparative_judge&#45;&gt;gui_agents.s3.memory.procedural_memory</title>
<path fill="none" stroke="black" d="M428.09,-324.41C440.46,-348.82 463.08,-393.42 477.63,-422.11"/>
<polygon fill="black" stroke="black" points="482.03,-430.8 473.5,-423.92 480.32,-427.43 477.51,-421.88 477.51,-421.88 477.51,-421.88 480.32,-427.43 481.53,-419.85 482.03,-430.8"/>
</g>
<!-- gui_agents.s3.bbon.comparative_judge&#45;&gt;gui_agents.s3.utils.common_utils -->
<g id="edge21" class="edge">
<title>gui_agents.s3.bbon.comparative_judge&#45;&gt;gui_agents.s3.utils.common_utils</title>
<path fill="none" stroke="black" d="M383.55,-324.48C364.72,-333.7 341.44,-345.1 321.38,-354.92"/>
<polygon fill="black" stroke="black" points="312.62,-359.2 319.62,-350.77 316.01,-357.54 321.6,-354.81 321.6,-354.81 321.6,-354.81 316.01,-357.54 323.58,-358.85 312.62,-359.2"/>
</g>
<!-- gui_agents.s3.cli_app -->
<g id="node10" class="node">
<title>gui_agents.s3.cli_app</title>
<polygon fill="none" stroke="black" points="752.14,-36 618.39,-36 618.39,0 752.14,0 752.14,-36"/>
<text xml:space="preserve" text-anchor="start" x="626.39" y="-13.5" font-family="Times,serif" font-size="14.00">gui_agents.s3.cli_app</text>
</g>
<!-- gui_agents.s3.cli_app&#45;&gt;gui_agents.s3.agents.agent_s -->
<g id="edge22" class="edge">
<title>gui_agents.s3.cli_app&#45;&gt;gui_agents.s3.agents.agent_s</title>
<path fill="none" stroke="black" d="M656.54,-36.48C641.88,-45.4 623.87,-56.37 608.1,-65.97"/>
<polygon fill="black" stroke="black" points="599.66,-71.11 605.86,-62.06 602.89,-69.14 608.2,-65.91 608.2,-65.91 608.2,-65.91 602.89,-69.14 610.54,-69.75 599.66,-71.11"/>
</g>
<!-- gui_agents.s3.cli_app&#45;&gt;gui_agents.s3.agents.grounding -->
<g id="edge23" class="edge">
<title>gui_agents.s3.cli_app&#45;&gt;gui_agents.s3.agents.grounding</title>
<path fill="none" stroke="black" d="M685.26,-36.15C685.26,-72.93 685.26,-159.71 685.26,-204.76"/>
<polygon fill="black" stroke="black" points="685.26,-214.55 680.76,-204.55 685.26,-210.77 685.26,-204.55 685.26,-204.55 685.26,-204.55 685.26,-210.77 689.76,-204.55 685.26,-214.55"/>
</g>
<!-- gui_agents.s3.utils.local_env -->
<g id="node20" class="node">
<title>gui_agents.s3.utils.local_env</title>
<polygon fill="none" stroke="black" points="887.01,-108 713.51,-108 713.51,-72 887.01,-72 887.01,-108"/>
<text xml:space="preserve" text-anchor="start" x="721.51" y="-85.5" font-family="Times,serif" font-size="14.00">gui_agents.s3.utils.local_env</text>
</g>
<!-- gui_agents.s3.cli_app&#45;&gt;gui_agents.s3.utils.local_env -->
<g id="edge24" class="edge">
<title>gui_agents.s3.cli_app&#45;&gt;gui_agents.s3.utils.local_env</title>
<path fill="none" stroke="black" d="M713.98,-36.48C728.64,-45.4 746.65,-56.37 762.43,-65.97"/>
<polygon fill="black" stroke="black" points="770.86,-71.11 759.98,-69.75 767.63,-69.14 762.32,-65.91 762.32,-65.91 762.32,-65.91 767.63,-69.14 764.66,-62.06 770.86,-71.11"/>
</g>
<!-- gui_agents.s3.core -->
<g id="node11" class="node">
<title>gui_agents.s3.core</title>
<polygon fill="none" stroke="black" points="1025.89,-36 908.64,-36 908.64,0 1025.89,0 1025.89,-36"/>
<text xml:space="preserve" text-anchor="start" x="916.64" y="-13.5" font-family="Times,serif" font-size="14.00">gui_agents.s3.core</text>
</g>
<!-- gui_agents.s3.core.engine -->
<g id="node12" class="node">
<title>gui_agents.s3.core.engine</title>
<polygon fill="none" stroke="black" points="890.76,-468 733.76,-468 733.76,-432 890.76,-432 890.76,-468"/>
<text xml:space="preserve" text-anchor="start" x="741.76" y="-445.5" font-family="Times,serif" font-size="14.00">gui_agents.s3.core.engine</text>
</g>
<!-- gui_agents.s3.core.mllm&#45;&gt;gui_agents.s3.core.engine -->
<g id="edge25" class="edge">
<title>gui_agents.s3.core.mllm&#45;&gt;gui_agents.s3.core.engine</title>
<path fill="none" stroke="black" d="M812.26,-396.3C812.26,-403.68 812.26,-412.48 812.26,-420.75"/>
<polygon fill="black" stroke="black" points="812.26,-430.68 807.76,-420.68 812.26,-426.9 812.26,-420.68 812.26,-420.68 812.26,-420.68 812.26,-426.9 816.76,-420.68 812.26,-430.68"/>
</g>
<!-- gui_agents.s3.core.module&#45;&gt;gui_agents.s3.core.mllm -->
<g id="edge26" class="edge">
<title>gui_agents.s3.core.module&#45;&gt;gui_agents.s3.core.mllm</title>
<path fill="none" stroke="black" d="M570.64,-250.04C574.57,-250.72 578.46,-251.37 582.26,-252 636.34,-260.93 790.45,-246.51 826.26,-288 840.75,-304.78 834.9,-330.27 826.8,-349.67"/>
<polygon fill="black" stroke="black" points="822.68,-358.62 822.77,-347.66 824.26,-355.19 826.86,-349.54 826.86,-349.54 826.86,-349.54 824.26,-355.19 830.95,-351.42 822.68,-358.62"/>
</g>
<!-- gui_agents.s3.memory -->
<g id="node15" class="node">
<title>gui_agents.s3.memory</title>
<polygon fill="none" stroke="black" points="1184.51,-36 1044.01,-36 1044.01,0 1184.51,0 1184.51,-36"/>
<text xml:space="preserve" text-anchor="start" x="1052.01" y="-13.5" font-family="Times,serif" font-size="14.00">gui_agents.s3.memory</text>
</g>
<!-- gui_agents.s3.utils -->
<g id="node17" class="node">
<title>gui_agents.s3.utils</title>
<polygon fill="none" stroke="black" points="1319.89,-36 1202.64,-36 1202.64,0 1319.89,0 1319.89,-36"/>
<text xml:space="preserve" text-anchor="start" x="1210.64" y="-13.5" font-family="Times,serif" font-size="14.00">gui_agents.s3.utils</text>
</g>
<!-- gui_agents.s3.utils.common_utils&#45;&gt;gui_agents.s3.memory.procedural_memory -->
<g id="edge27" class="edge">
<title>gui_agents.s3.utils.common_utils&#45;&gt;gui_agents.s3.memory.procedural_memory</title>
<path fill="none" stroke="black" d="M329.96,-396.48C359.57,-406.12 396.52,-418.16 427.59,-428.27"/>
<polygon fill="black" stroke="black" points="436.72,-431.24 425.81,-432.42 433.12,-430.07 427.21,-428.15 427.21,-428.15 427.21,-428.15 433.12,-430.07 428.6,-423.87 436.72,-431.24"/>
</g>
<!-- gui_agents.s3.utils.formatters&#45;&gt;gui_agents.s3.utils.common_utils -->
<g id="edge28" class="edge">
<title>gui_agents.s3.utils.formatters&#45;&gt;gui_agents.s3.utils.common_utils</title>
<path fill="none" stroke="black" d="M159.97,-324.48C180.49,-333.75 205.89,-345.22 227.71,-355.07"/>
<polygon fill="black" stroke="black" points="236.66,-359.12 225.7,-359.1 233.22,-357.56 227.55,-355 227.55,-355 227.55,-355 233.22,-357.56 229.4,-350.9 236.66,-359.12"/>
</g>
</g>
</svg>
